<?xml version="1.0" encoding="UTF-8"?>
<svg width="100px" height="100px" viewBox="0 0 100 100" version="1.1" xmlns="http://www.w3.org/2000/svg" xmlns:xlink="http://www.w3.org/1999/xlink" style="background: #E64369;">
    <!-- Generator: Sketch 46.2 (44496) - http://www.bohemiancoding.com/sketch -->
    <title>Artboard</title>
    <desc>Created with Sketch.</desc>
    <defs>
        <path d="M68.5069307,4.46732673 C65.1582587,4.46739924 62.0125529,6.07265176 60.0475248,8.78415842 C54.8224029,3.34680987 47.5475011,0.363625463 40.0092499,0.567158247 C32.4709987,0.77069103 25.3676706,4.14208765 20.4435644,9.85346535 C17.7997403,5.05940888 11.9149314,3.10298238 6.92700637,5.35983563 C1.93908133,7.61668888 -0.476104543,13.3285588 1.3796725,18.4791776 C3.23544954,23.6297965 8.73868098,26.4886467 14.019802,25.0455446 C13.9485149,25.8376238 13.9089109,26.629703 13.9089109,27.4217822 C14.1604777,42.0651545 26.1029818,53.8042537 40.7485149,53.8042537 C55.3940479,53.8042537 67.336552,42.0651545 67.5881188,27.4217822 C67.5881188,26.7405941 67.5881188,26.0673267 67.5009901,25.4019802 C67.8415842,25.4019802 68.1821782,25.4574257 68.5386139,25.4574257 C72.34974,25.5622342 75.9170887,23.5889031 77.8535512,20.3047319 C79.7900137,17.0205607 79.7900137,12.9437957 77.8535512,9.65962452 C75.9170887,6.3754533 72.34974,4.40212219 68.5386139,4.50693069 L68.5069307,4.46732673 Z" id="path-1"></path>
    </defs>
    <g id="Page-1" stroke="none" stroke-width="1" fill="none" fill-rule="evenodd">
        <g id="Artboard">
            <g id="noun_852000" transform="translate(10.000000, 23.000000)">
                <g id="Shape" fill-rule="nonzero">
                    <use fill="#874545" fill-rule="evenodd" xlink:href="#path-1"></use>
                    <path stroke="#000000" stroke-width="1" d="M68.7758424,4.00307588 C72.6739174,3.98466902 76.2979633,6.03698755 78.2842546,9.40566669 C80.3131125,12.8465373 80.3131125,17.1178191 78.2842546,20.5586897 C76.2553967,23.9995604 72.5178372,26.0670461 68.5386139,25.9574257 C68.3901484,25.9574257 68.270963,25.9512914 68.0563514,25.9346319 C68.0817934,26.3150443 68.088093,26.7486026 68.088045,27.4303707 C67.8317924,42.3464969 55.666842,54.3042537 40.7485149,54.3042537 C25.8301877,54.3042537 13.6652373,42.3464969 13.4089109,27.4217822 C13.4089109,26.8553038 13.4287279,26.2795544 13.4677114,25.6917461 C8.15087211,26.7891671 2.7734629,23.8226284 0.909274047,18.648663 C-1.03491501,13.2526609 1.49533396,7.26866891 6.72089128,4.90429577 C11.7319186,2.63698957 17.6069927,4.42870446 20.5233988,9.00856478 C25.5165103,3.50534977 32.5477355,0.268436918 39.9957548,0.0673403972 C47.4809066,-0.1347587 54.7111635,2.74755251 60.0010853,8.02313356 C62.0726253,5.46586023 65.195041,3.96739844 68.5069199,3.96732673 L68.747239,3.96732153 L68.7758424,4.00307588 Z"></path>
                </g>
                <path d="M12.8950495,21.3861386 C9.61686753,21.387644 6.82853392,18.9957372 6.33120612,15.7554989 C5.83387832,12.5152605 7.77651802,9.39722048 10.9042539,8.41551395 C14.0319897,7.43380743 17.4079892,8.88247927 18.8514851,11.8257426 C16.8469355,14.6325691 15.4051878,17.8011862 14.6059406,21.1564356 C14.0480918,21.3072404 13.4729202,21.3844625 12.8950495,21.3861386 L12.8950495,21.3861386 Z M40.7207921,50.590099 C28.0475248,50.590099 17.750495,44.0316832 17.750495,35.9366337 C17.750495,32.5544554 19.5564356,29.4336634 22.5821782,26.9544554 C20.0633663,17.980198 23.7623762,9.06930693 30.9386139,6.97029703 C36.3247525,5.38613861 42.1465347,8.11089109 45.8693069,13.3069307 C48.1188119,11.4930693 50.7168317,10.7247525 53.1326733,11.4376238 C57.8851485,12.839604 60.1821782,19.5247525 58.249505,26.4316832 C61.6554455,28.990099 63.7069307,32.2930693 63.7069307,35.9366337 C63.7069307,44.0237624 53.4178218,50.590099 40.7207921,50.590099 Z M66.8831683,21.3861386 C65.9834515,17.4511475 64.2043043,13.7709937 61.6792079,10.6217822 C63.6053196,8.19526837 66.9538514,7.42388842 69.7474608,8.76315012 C72.5410702,10.1024118 74.0366876,13.1960861 73.3511355,16.2173265 C72.6655834,19.238567 69.9812112,21.3837565 66.8831683,21.3861386 L66.8831683,21.3861386 Z" id="Combined-Shape" fill="#FDE7B1"></path>
                <path d="M50.0514851,15.8415842 C47.2299116,15.8415842 44.9425743,18.1289215 44.9425743,20.950495 C44.9425743,23.7720686 47.2299116,26.0594059 50.0514851,26.0594059 C52.8730587,26.0594059 55.160396,23.7720686 55.160396,20.950495 C55.160396,18.1289215 52.8730587,15.8415842 50.0514851,15.8415842 L50.0514851,15.8415842 Z" id="Shape" fill="#070606"></path>
                <path d="M50.0514851,25.2673267 C47.6629903,25.2673267 45.7267327,23.3310691 45.7267327,20.9425743 C45.7267327,18.5540794 47.6629903,16.6178218 50.0514851,16.6178218 C52.43998,16.6178218 54.3762376,18.5540794 54.3762376,20.9425743 C54.3804491,22.0923122 53.9266668,23.1964041 53.1151615,24.0108819 C52.3036561,24.8253598 51.2012308,25.283176 50.0514851,25.2831683 L50.0514851,25.2673267 Z" id="Shape" fill="#FFFFFF"></path>
                <path d="M34.3287129,9.95643564 C29.8808469,9.96080916 26.2782749,13.5692893 26.2811898,18.0171565 C26.2841048,22.4650237 29.8914034,26.0687788 34.3392713,26.0673224 C38.7871393,26.065866 42.3920771,22.4597494 42.3920792,18.0118812 C42.3920802,15.8740711 41.5422967,13.8239357 40.0298941,12.3130188 C38.5174915,10.8021018 36.4665219,9.95433357 34.3287129,9.95643564 Z" id="Shape" fill="#070606"></path>
                <path d="M34.3287129,25.2910891 C30.3128919,25.2910891 27.0574257,22.035623 27.0574257,18.019802 C27.0574257,14.003981 30.3128919,10.7485149 34.3287129,10.7485149 C38.3445339,10.7485149 41.6,14.003981 41.6,18.019802 C41.5912735,22.0307198 38.3396378,25.2788134 34.3287129,25.2831683 L34.3287129,25.2910891 Z" id="Shape" fill="#FFFFFF"></path>
                <path d="M36.1346535,23.849505 C33.9080163,23.849505 32.1029703,22.0444589 32.1029703,19.8178218 C32.1029703,17.5911847 33.9080163,15.7861386 36.1346535,15.7861386 C38.3612906,15.7861386 40.1663366,17.5911847 40.1663366,19.8178218 C40.1663366,22.0444589 38.3612906,23.849505 36.1346535,23.849505 Z M50.9148515,24.380198 C49.506252,24.380198 48.3643564,23.2383025 48.3643564,21.829703 C48.3643564,20.4211035 49.506252,19.2792079 50.9148515,19.2792079 C52.323451,19.2792079 53.4653465,20.4211035 53.4653465,21.829703 C53.4653465,23.2383025 52.323451,24.380198 50.9148515,24.380198 Z M40.3881188,33.4811881 C39.740688,33.4811881 39.2158416,32.4279491 39.2158416,31.1287129 C39.2158416,29.8294767 39.740688,28.7762376 40.3881188,28.7762376 C41.0355496,28.7762376 41.560396,29.8294767 41.560396,31.1287129 C41.560396,32.4279491 41.0355496,33.4811881 40.3881188,33.4811881 Z M43.5247525,33.4811881 C42.8773216,33.4811881 42.3524752,32.4279491 42.3524752,31.1287129 C42.3524752,29.8294767 42.8773216,28.7762376 43.5247525,28.7762376 C44.1721833,28.7762376 44.6970297,29.8294767 44.6970297,31.1287129 C44.6970297,32.4279491 44.1721833,33.4811881 43.5247525,33.4811881 Z M44.1866294,44.871927 C43.4920181,46.922889 39.2711314,47.346716 34.7590151,45.8185711 C30.2468989,44.2904262 27.1521996,41.3889868 27.846811,39.3380249 C28.5414223,37.2870629 32.7623089,36.863236 37.2744252,38.3913809 C41.7865415,39.9195258 44.8812407,42.8209651 44.1866294,44.871927 Z" id="Face" fill="#070606" fill-rule="nonzero"></path>
            </g>
        </g>
    </g>
</svg>